<svg xmlns="http://www.w3.org/2000/svg" width="45" height="45" viewBox="0 0 45 45">
  <g fill="none" fill-rule="evenodd">
    <rect width="45" height="45" fill="#ECEFF4"/>
    <path fill="#2E3440" d="M26.9988241,21.9432287 L27.0746657,22.3581495 L27.1377417,22.6806622 C27.1804771,22.8940102 27.2245925,23.1040216 27.2701519,23.3106041 L27.2701519,23.3106041 L27.4112266,23.9199728 C27.4354825,24.0197891 27.4601153,24.118725 27.4851332,24.2167691 L27.4851332,24.2167691 L27.6399251,24.7942391 L27.8043422,25.3497506 C28.9051675,28.8880098 30.6403421,30.9995338 33.4847732,30.9995338 C35.2215675,30.9995338 36.8882824,30.5362843 38.486447,29.6295246 C35.7573032,35.7407204 29.6260556,40 22.5,40 C15.9196644,40 10.1876044,36.3681005 7.19903071,30.9995123 L7.82277422,30.9995338 L7.99974004,30.9915644 C8.41008865,30.9545206 8.79968901,30.789365 9.11085589,30.5176769 L9.11085589,30.5176769 L14.1932905,26.0789864 L20.1729199,30.6035121 L20.2974945,30.6905182 C21.2687004,31.3149787 22.5941037,30.9639295 23.1078713,29.91204 L23.1078713,29.91204 L26.9988241,21.9432287 Z M22.5,5 C30.9367003,5 37.9790046,10.9701189 39.6326998,18.9161434 C39.8734581,20.0729898 40,21.2717171 40,22.5 C40,22.755142 39.9945399,23.0090088 39.9837301,23.2614898 C37.784757,25.9026053 35.6149177,27.1505271 33.4847732,27.1505271 C32.7283823,27.1505271 31.7682624,25.5205306 31.0929105,22.5688263 L31.0929105,22.5688263 L30.9617818,21.960954 L30.8993365,21.643972 C30.6192878,20.1773601 30.4291765,18.5900589 30.3142189,17.000429 C30.2738634,16.4423943 30.2458812,15.9248396 30.2280956,15.4619409 L30.2280956,15.4619409 L30.2045315,14.7526694 C30.0474443,12.841873 27.3844085,12.3063737 26.5132036,14.0900815 L26.5132036,14.0900815 L20.6408183,26.111703 L15.2876578,22.0612527 L15.1458659,21.963454 C14.4210805,21.509252 13.4705311,21.5765182 12.8170522,22.147088 L12.8170522,22.147088 L7.08602465,27.1499726 L5.624386,27.1495352 C5.2173791,25.6689626 5,24.1098671 5,22.5 C5,12.8350169 12.8350169,5 22.5,5 Z"/>
  </g>
</svg>
